<?xml version="1.0" encoding="UTF-8" ?>
<!DOCTYPE svg PUBLIC "-//W3C//DTD SVG 1.1//EN" "http://www.w3.org/Graphics/SVG/1.1/DTD/svg11.dtd">
<svg width="960pt" height="540pt" viewBox="0 0 960 540" version="1.1" xmlns="http://www.w3.org/2000/svg">
<g id="#ffffffff">
</g>
<g id="#4a86e8ff">
<path fill="#4a86e8" stroke="#4a86e8" stroke-width="0.09375" opacity="1.00" d=" M 276.29 111.22 C 301.33 101.45 328.03 94.91 355.05 95.38 C 372.85 95.64 390.57 104.61 400.69 119.33 C 409.22 132.93 405.86 150.25 398.58 163.61 C 381.71 195.74 355.55 222.28 325.97 242.95 C 314.45 250.69 302.47 258.45 288.85 261.87 C 277.16 264.77 264.28 260.64 256.34 251.63 C 246.69 242.99 250.53 226.43 259.30 218.65 C 259.35 220.33 259.44 222.02 259.54 223.70 C 271.13 228.05 282.02 220.38 291.21 214.21 C 311.15 200.23 329.23 183.41 343.99 164.00 C 348.36 157.72 353.41 150.95 353.43 142.97 C 353.23 137.76 347.15 136.64 343.02 136.99 C 322.84 138.02 303.99 146.42 286.03 155.04 C 219.77 188.18 162.52 240.15 125.54 304.57 C 110.57 330.35 98.19 358.79 97.02 388.98 C 96.36 400.46 98.99 413.14 107.98 421.03 C 115.59 427.70 126.30 429.05 136.05 428.54 C 153.47 427.44 169.97 420.94 185.63 413.64 C 212.21 401.32 235.89 383.78 259.00 365.99 C 274.75 353.54 290.27 340.65 303.76 325.73 C 306.24 323.06 307.95 319.84 309.53 316.59 C 313.16 316.93 316.33 319.30 316.46 323.18 C 317.37 334.83 314.65 346.40 312.98 357.89 C 311.33 369.95 303.05 379.51 295.30 388.31 C 252.61 434.57 192.93 468.23 129.01 469.77 C 107.21 470.89 86.73 459.39 72.60 443.43 C 59.89 429.81 52.23 411.61 51.73 392.96 C 50.82 359.65 60.92 327.03 75.28 297.30 C 91.35 263.95 113.87 234.05 139.23 207.23 C 177.98 166.73 223.65 131.54 276.29 111.22 Z" />
</g>
<g id="#666666ff">
<path fill="#666666" stroke="#666666" stroke-width="0.09375" opacity="1.00" d=" M 430.42 155.40 C 433.71 153.08 438.67 155.81 438.07 159.93 C 438.23 184.31 438.05 208.69 438.13 233.07 C 438.20 237.11 439.31 241.77 442.96 244.04 C 445.70 245.04 448.71 244.74 451.52 245.49 C 455.50 248.35 452.81 255.10 447.95 254.58 C 436.87 256.07 428.45 245.25 428.46 234.95 C 428.23 210.62 428.49 186.28 428.34 161.95 C 428.45 159.69 428.11 156.72 430.42 155.40 Z" />
<path fill="#666666" stroke="#666666" stroke-width="0.09375" opacity="1.00" d=" M 472.42 157.45 C 476.86 156.27 481.70 160.29 480.93 164.94 C 480.69 170.38 473.32 173.33 469.38 169.59 C 465.09 166.17 466.87 158.30 472.42 157.45 Z" />
<path fill="#666666" stroke="#666666" stroke-width="0.09375" opacity="1.00" d=" M 673.30 166.11 C 673.75 161.02 682.20 161.11 682.74 166.11 C 683.40 173.09 682.80 180.12 683.01 187.13 C 688.29 187.26 693.62 186.73 698.87 187.40 C 702.95 188.05 702.82 195.01 698.69 195.47 C 693.49 196.14 688.23 195.62 683.01 195.75 C 683.01 207.19 682.96 218.63 683.00 230.08 C 682.86 235.23 685.32 240.57 689.95 243.10 C 693.79 245.36 698.47 244.13 702.58 245.39 C 705.61 247.30 705.36 252.58 701.96 253.99 C 689.06 257.55 674.67 247.62 673.41 234.25 C 672.71 221.45 673.34 208.60 673.11 195.78 C 669.64 195.69 666.07 196.14 662.68 195.25 C 659.53 194.07 659.45 188.92 662.53 187.61 C 665.97 186.72 669.59 187.18 673.11 187.11 C 673.29 180.11 672.79 173.09 673.30 166.11 Z" />
<path fill="#666666" stroke="#666666" stroke-width="0.09375" opacity="1.00" d=" M 508.36 195.42 C 518.52 182.80 538.51 180.24 551.85 189.14 C 561.70 195.73 566.77 208.16 565.72 219.77 C 565.15 222.83 561.49 222.88 559.06 222.90 C 542.53 222.88 525.99 222.84 509.46 222.91 C 510.49 230.27 513.88 237.55 520.21 241.78 C 530.08 248.76 544.00 247.41 553.47 240.34 C 557.09 237.21 562.80 242.84 559.46 246.37 C 546.40 257.93 524.56 258.31 511.53 246.44 C 497.44 233.76 496.65 209.91 508.36 195.42 M 515.76 200.78 C 512.35 204.64 510.84 209.68 509.72 214.60 C 525.44 214.64 541.17 214.66 556.89 214.59 C 555.94 209.66 554.65 204.58 551.32 200.69 C 542.84 189.84 524.30 190.18 515.76 200.78 Z" />
<path fill="#666666" stroke="#666666" stroke-width="0.09375" opacity="1.00" d=" M 592.64 193.56 C 607.01 177.49 638.02 181.71 645.22 202.82 C 649.61 217.77 646.66 233.69 647.46 249.05 C 648.44 254.48 640.05 256.79 638.09 251.76 C 636.32 237.09 639.39 221.96 636.38 207.42 C 630.87 188.08 598.01 188.41 592.94 207.82 C 591.68 222.13 593.20 236.62 592.22 250.97 C 591.55 256.28 582.37 255.46 582.71 250.07 C 582.53 230.03 582.64 209.98 582.66 189.94 C 582.08 186.07 586.46 183.32 589.82 185.02 C 593.05 186.54 592.26 190.65 592.64 193.56 Z" />
<path fill="#666666" stroke="#666666" stroke-width="0.09375" opacity="1.00" d=" M 471.35 185.25 C 474.68 183.11 479.46 185.87 478.84 189.91 C 478.86 209.95 478.99 230.00 478.78 250.04 C 479.06 256.01 468.98 255.94 469.14 250.05 C 468.77 231.04 469.16 212.00 468.96 192.98 C 469.09 190.33 468.61 186.78 471.35 185.25 Z" />
</g>
<g id="#000000ff">
<path fill="#000000" stroke="#000000" stroke-width="0.09375" opacity="1.00" d=" M 726.06 338.09 C 725.98 335.06 731.04 335.14 731.04 338.09 C 731.56 343.66 731.11 349.28 731.25 354.88 C 741.14 354.98 751.05 354.67 760.93 355.00 C 763.94 354.95 763.91 360.01 760.93 359.97 C 751.05 360.36 741.14 360.01 731.25 360.12 C 731.30 372.05 731.16 383.98 731.30 395.91 C 731.46 401.25 736.62 404.93 741.57 405.47 C 751.21 406.64 760.87 403.70 769.40 399.37 C 771.47 401.03 771.91 403.88 769.16 405.13 C 760.28 409.70 749.87 412.09 739.92 410.46 C 732.81 409.40 725.94 403.69 725.94 396.08 C 725.76 384.09 725.94 372.10 725.87 360.12 C 722.00 360.02 718.08 360.48 714.27 359.80 C 711.77 359.16 712.37 354.82 715.04 355.00 C 718.64 354.69 722.26 354.91 725.87 354.89 C 726.00 349.29 725.59 343.67 726.06 338.09 Z" />
<path fill="#000000" stroke="#000000" stroke-width="0.09375" opacity="1.00" d=" M 354.27 353.15 C 364.07 351.85 374.29 355.77 380.53 363.46 C 390.22 374.35 389.34 392.71 378.60 402.59 C 368.21 413.39 349.31 413.87 338.38 403.65 C 331.10 397.41 327.41 387.47 328.84 377.98 C 330.35 365.24 341.51 354.40 354.27 353.15 M 354.37 358.48 C 343.01 359.85 333.45 370.47 333.85 382.02 C 333.49 393.77 343.42 404.57 355.05 405.61 C 362.71 406.59 370.72 403.65 375.83 397.84 C 383.27 390.09 384.00 377.01 377.66 368.39 C 372.54 361.04 363.22 357.09 354.37 358.48 Z" />
<path fill="#000000" stroke="#000000" stroke-width="0.09375" opacity="1.00" d=" M 417.74 362.68 C 424.45 355.12 435.02 350.60 445.00 354.00 C 452.65 356.17 458.16 364.02 457.88 371.92 C 457.88 382.51 457.87 393.09 457.87 403.67 C 460.17 403.74 462.51 403.61 464.78 404.15 C 466.76 405.65 465.58 409.13 463.01 408.86 C 457.71 409.10 452.37 409.17 447.09 408.82 C 444.81 408.82 443.81 405.93 445.32 404.37 C 447.65 403.46 450.20 403.81 452.64 403.66 C 452.47 392.37 452.91 381.05 452.44 369.76 C 451.68 361.59 442.68 357.07 435.18 358.37 C 427.45 358.88 422.48 365.47 417.73 370.78 C 417.77 381.76 417.74 392.74 417.75 403.72 C 420.67 403.90 423.80 403.22 426.57 404.45 C 427.94 405.96 427.07 408.76 424.90 408.80 C 418.62 409.20 412.29 409.06 406.01 408.88 C 403.32 409.24 401.93 405.51 404.23 404.11 C 406.94 403.49 409.75 403.80 412.51 403.71 C 412.51 389.22 412.48 374.72 412.52 360.23 C 409.52 360.11 403.37 360.95 404.72 356.09 C 408.50 353.66 413.47 355.33 417.75 354.89 C 417.75 357.48 417.74 360.08 417.74 362.68 Z" />
<path fill="#000000" stroke="#000000" stroke-width="0.09375" opacity="1.00" d=" M 494.61 362.56 C 501.36 355.09 511.89 350.61 521.84 354.02 C 529.48 356.19 535.01 364.05 534.64 371.96 C 534.61 382.53 534.64 393.10 534.61 403.67 C 536.98 403.85 539.54 403.38 541.79 404.36 C 543.91 406.38 541.66 409.45 539.05 408.93 C 533.34 408.61 527.11 410.14 521.76 407.91 C 519.94 402.94 526.40 403.67 529.39 403.67 C 529.27 392.43 529.56 381.18 529.27 369.95 C 528.56 361.09 518.48 356.66 510.58 358.57 C 503.55 359.67 499.07 365.77 494.61 370.71 C 494.64 381.71 494.62 392.71 494.62 403.72 C 497.33 403.79 500.10 403.50 502.78 404.09 C 505.25 405.41 503.76 409.30 501.06 408.89 C 494.75 409.04 488.40 409.21 482.11 408.79 C 479.73 408.77 478.92 404.83 481.25 404.12 C 483.89 403.43 486.67 403.82 489.38 403.72 C 489.38 389.22 489.36 374.73 489.39 360.23 C 486.52 360.09 479.98 360.97 481.66 356.16 C 485.22 353.59 490.40 355.37 494.63 354.89 C 494.62 357.44 494.62 360.00 494.61 362.56 Z" />
<path fill="#000000" stroke="#000000" stroke-width="0.09375" opacity="1.00" d=" M 558.03 378.91 C 558.67 363.09 574.75 351.08 590.10 353.05 C 605.51 353.45 617.70 367.99 616.87 383.12 C 598.95 383.17 581.03 383.06 563.12 383.17 C 564.44 392.47 570.63 401.13 579.70 404.17 C 591.03 407.88 603.75 404.75 613.40 398.15 C 616.13 396.45 618.35 401.20 615.65 402.65 C 606.91 409.56 594.93 411.90 584.01 410.61 C 568.95 408.74 556.54 394.21 558.03 378.91 M 563.15 377.81 C 579.31 377.92 595.47 377.90 611.62 377.82 C 609.59 366.36 598.64 357.62 587.01 358.25 C 575.62 357.93 565.16 366.62 563.15 377.81 Z" />
<path fill="#000000" stroke="#000000" stroke-width="0.09375" opacity="1.00" d=" M 647.63 359.64 C 658.46 350.43 675.92 350.79 686.76 359.81 C 686.25 356.71 689.53 352.60 692.04 356.18 C 692.64 361.37 692.55 366.70 692.11 371.91 C 691.90 374.48 687.38 374.44 687.41 371.75 C 684.73 358.46 667.58 355.92 656.71 359.90 C 640.35 366.26 637.62 392.02 652.39 401.63 C 664.40 409.43 681.16 405.56 691.06 395.99 C 693.87 392.87 697.35 397.95 694.19 400.17 C 681.97 412.13 659.75 415.64 646.37 403.65 C 633.84 392.45 634.60 370.15 647.63 359.64 Z" />
</g>
</svg>
